<svg width="80" height="64" viewBox="0 0 80 64" fill="none" xmlns="http://www.w3.org/2000/svg">
    <g clip-path="url(#clip0_726_3560)">
        <path fill-rule="evenodd" clip-rule="evenodd" d="M61.8219 8.73445C63.6952 10.2895 64.8252 12.622 65.0631 15.4928C65.5389 20.9653 62.8924 27.6938 57.9264 33.4952C54.2688 37.7715 49.8084 41.0012 45.4074 42.5562C43.534 43.244 41.7201 43.573 40.0548 43.573C39.9805 43.573 39.9136 43.5655 39.8467 43.558C39.7798 43.5505 39.7129 43.5431 39.6385 43.5431C39.5196 43.573 39.3709 43.573 39.2222 43.573C37.5867 43.573 35.7728 43.2141 33.8697 42.5562C29.439 41.0012 25.0083 37.8014 21.3507 33.4952C16.4145 27.6938 13.7679 20.9653 14.2437 15.4928C14.4816 12.622 15.6116 10.2895 17.485 8.73445C20.2802 6.43182 24.3541 6.04306 28.9632 7.6878C29.3795 7.83732 29.8255 8.01675 30.2419 8.19617C30.4203 7.86723 30.5987 7.53828 30.7771 7.23924C33.2452 3.05263 36.6054 0.75 40.2333 0.75C43.8611 0.75 47.2213 3.05263 49.6894 7.23924C49.7489 7.32895 49.8009 7.42614 49.853 7.52333C49.905 7.62052 49.957 7.7177 50.0165 7.80742C50.0497 7.79628 50.0871 7.78101 50.127 7.76467C50.1943 7.73713 50.269 7.70657 50.3436 7.6878C54.9825 6.07297 59.0564 6.43182 61.8219 8.73445ZM18.942 10.5287C17.5742 11.695 16.7416 13.4593 16.5334 15.7022C16.1171 20.4868 18.6447 26.7368 23.0754 32.0598C25.7814 35.1998 28.9037 37.7416 32.0855 39.3565C32.2341 39.4162 32.353 39.476 32.4719 39.5358C32.982 39.7923 33.5143 40.0049 34.0306 40.2112C34.1162 40.2454 34.2014 40.2794 34.286 40.3134C34.3455 40.3284 34.3975 40.3508 34.4495 40.3732C34.5016 40.3956 34.5536 40.4181 34.6131 40.433C34.7172 40.4629 34.8287 40.5003 34.9402 40.5377C35.0517 40.5751 35.1632 40.6124 35.2673 40.6423C36.8433 41.1208 38.3004 41.3301 39.6385 41.2703H39.8467C41.4227 41.1507 42.7906 40.6723 43.8611 39.7751C45.229 38.6089 46.0616 36.8445 46.2697 34.6017C46.6861 29.817 44.1585 23.567 39.698 18.3038C39.698 18.2739 39.6683 18.244 39.6385 18.2141C39.5451 18.1097 39.4553 18.0054 39.3667 17.9023C39.2012 17.71 39.0396 17.5221 38.8654 17.3469C38.5978 17.0479 38.3301 16.7787 38.0625 16.5096C35.9512 14.3565 33.6615 12.5921 31.3124 11.3062C31.1078 11.1753 30.8916 11.0678 30.6784 10.9617C30.5506 10.8982 30.4239 10.8352 30.3013 10.7679C29.9445 10.5885 29.6174 10.439 29.2606 10.2895C28.9037 10.14 28.5469 9.99043 28.19 9.87081C26.5248 9.30263 24.9785 9.00359 23.5809 9.00359C21.7373 9.00359 20.1612 9.51196 18.942 10.5287ZM40.2333 3.08254C37.4381 3.08254 34.7915 4.96651 32.7397 8.43541C32.6852 8.53412 32.6307 8.6288 32.5776 8.72094C32.486 8.88003 32.3987 9.03152 32.3234 9.18302C34.8807 10.5586 37.3786 12.4725 39.6683 14.7751C39.8021 14.9097 39.9359 15.0517 40.0697 15.1938C40.2035 15.3358 40.3373 15.4779 40.4712 15.6124C40.5582 15.7097 40.6452 15.8038 40.7312 15.8967C40.9097 16.0897 41.0838 16.2779 41.2443 16.4797C41.3038 16.5993 41.393 16.689 41.4822 16.7787C46.24 22.3708 48.8568 28.8301 48.6189 34.183C50.2247 30.7739 51.087 26.5873 51.087 22.1615C51.087 18.0048 50.3139 14.0873 48.9163 10.7978C48.7676 10.439 48.6189 10.0801 48.4405 9.7512C48.2621 9.39247 48.0838 9.06363 47.9054 8.7348L47.9052 8.73445C47.8755 8.6896 47.8458 8.63728 47.816 8.58495C47.7863 8.53261 47.7566 8.48027 47.7268 8.43541C45.675 4.99641 43.0285 3.08254 40.2333 3.08254ZM49.6894 37.0837C49.4218 37.5323 49.1244 37.9809 48.8271 38.3995C51.4439 36.8146 54.0012 34.6017 56.2017 32.0299C60.6621 26.7667 63.1897 20.5167 62.7734 15.7321C62.595 13.4892 61.7624 11.7249 60.3648 10.5586C59.1753 9.54187 57.5696 9.03349 55.7259 9.03349C54.3283 9.03349 52.782 9.30263 51.1168 9.90072C51.1019 9.90072 51.087 9.90819 51.0722 9.91567C51.0573 9.92315 51.0424 9.93062 51.0276 9.93062C52.5441 13.4892 53.3767 17.7356 53.3767 22.1914C53.3767 27.7835 52.0683 33.0766 49.6894 37.0837Z" fill="#F9F3F0"/>
        <path d="M5.70938 35.5287L6.63121 37.0538L8.38565 35.9474L5.44175 31.1029L3.68731 32.1794L4.60913 33.7045L0 36.5156L1.10025 38.3397L5.70938 35.5287Z" fill="#F9F3F0"/>
        <path fill-rule="evenodd" clip-rule="evenodd" d="M10.9133 39.0574C9.57517 37.2931 7.16652 36.9641 5.41208 38.3098C3.65763 39.6555 3.41974 42.0778 4.75788 43.8421C6.09601 45.6065 8.50466 45.9354 10.2591 44.5897C11.9838 43.244 12.2514 40.8218 10.9133 39.0574ZM9.2778 40.3134C9.90227 41.1507 9.75358 42.2572 8.9507 42.8852C8.11808 43.5431 7.01784 43.3936 6.39337 42.5562C5.76891 41.7189 5.9176 40.6125 6.72048 39.9845C7.55309 39.3565 8.65334 39.4761 9.2778 40.3134Z" fill="#F9F3F0"/>
        <path fill-rule="evenodd" clip-rule="evenodd" d="M10.824 45.3672C12.3108 43.7225 14.7492 43.6328 16.3847 45.128C18.0202 46.6232 18.1689 49.0754 16.6821 50.7201C15.1952 52.3648 12.7569 52.4545 11.1214 50.9593C9.48587 49.4641 9.33718 47.012 10.824 45.3672ZM15.106 49.2548C15.79 48.4773 15.7602 47.4007 14.9574 46.683C14.1842 45.9653 13.084 46.0251 12.4 46.8026C11.7161 47.5801 11.7458 48.6567 12.5487 49.3744C13.3219 50.0921 14.3924 50.0323 15.106 49.2548Z" fill="#F9F3F0"/>
        <path d="M21.1127 58.0167C23.1051 59.0933 25.1271 58.4055 26.1382 56.5514L26.5545 55.744L23.224 53.9199L22.3616 55.5347L23.7593 56.3122C23.3429 56.6112 22.8077 56.671 22.094 56.2823C20.8748 55.5945 20.9343 54.4581 21.3506 53.6806C21.8561 52.7536 22.8374 52.4246 23.789 52.933C24.354 53.262 24.6811 53.7404 24.7108 54.2189L26.7924 54.189C26.7032 52.9629 25.9895 51.7667 24.7406 51.0789C22.8077 50.0024 20.5477 50.7201 19.4772 52.6639C18.4364 54.6077 19.0312 56.8804 21.1127 58.0167Z" fill="#F9F3F0"/>
        <path fill-rule="evenodd" clip-rule="evenodd" d="M27.1195 56.7907C27.7737 54.6675 29.9742 53.5909 32.0558 54.2488C34.167 54.9067 35.3267 57.0897 34.6428 59.183C33.9886 61.3062 31.7881 62.3828 29.7066 61.7249C27.625 61.067 26.4653 58.884 27.1195 56.7907ZM32.6505 58.5251C32.9776 57.5383 32.4721 56.5514 31.461 56.2225C30.45 55.8935 29.4984 56.4019 29.1713 57.4187C28.8442 58.4055 29.3497 59.3923 30.3608 59.7213C31.3718 60.0502 32.3234 59.5419 32.6505 58.5251Z" fill="#F9F3F0"/>
        <path fill-rule="evenodd" clip-rule="evenodd" d="M39.7277 55.3852C37.5272 55.3852 35.7727 57.0897 35.7727 59.3026C35.7727 61.5155 37.4974 63.2201 39.7277 63.25C41.9282 63.25 43.6826 61.5454 43.6826 59.3325C43.6826 57.0897 41.9282 55.3852 39.7277 55.3852ZM39.7277 57.5084C40.7684 57.5084 41.5416 58.2859 41.5416 59.3325C41.5416 60.3493 40.7684 61.1567 39.7277 61.1567C38.6869 61.1567 37.9137 60.3792 37.9137 59.3325C37.9137 58.2859 38.6869 57.5084 39.7277 57.5084Z" fill="#F9F3F0"/>
        <path fill-rule="evenodd" clip-rule="evenodd" d="M51.4439 57.0897C52.0981 59.1232 51.0871 61.1268 49.1245 61.7548L46.1806 62.7117L43.9206 55.5646L46.8645 54.6077C48.8271 53.9797 50.7897 55.0562 51.4439 57.0897ZM49.3921 57.7177C49.0947 56.7608 48.2918 56.3122 47.4592 56.5813L46.6563 56.8505L47.6674 60.0502L48.4703 59.7811C49.3029 59.512 49.7192 58.6746 49.3921 57.7177Z" fill="#F9F3F0"/>
        <path d="M56.8857 52.2153L58.4022 51.3182L57.3614 49.5239L52.4847 52.3947L53.5255 54.189L55.042 53.2919L57.748 57.9868L59.5917 56.9103L56.8857 52.2153Z" fill="#F9F3F0"/>
        <path fill-rule="evenodd" clip-rule="evenodd" d="M59.651 52.5742C58.2831 50.8397 58.5805 48.4175 60.2754 47.012C62.0002 45.6364 64.4088 45.8457 65.8064 47.5801C67.204 49.3146 66.8769 51.7368 65.1522 53.1423C63.4275 54.5478 61.0189 54.3086 59.651 52.5742ZM64.1412 48.9557C63.487 48.1483 62.4165 48.0287 61.5838 48.6866C60.7512 49.3445 60.662 50.451 61.2865 51.2584C61.9407 52.0658 63.0112 52.1854 63.8438 51.5275C64.6764 50.8397 64.7954 49.7632 64.1412 48.9557Z" fill="#F9F3F0"/>
        <path d="M73.5974 44.5897C75.0545 42.8254 74.7868 40.6723 73.1811 39.3266L72.5566 38.7883L70.1182 41.7189L71.5158 42.8852L72.5269 41.6591C72.735 42.1376 72.6756 42.6758 72.17 43.3038C71.2779 44.3804 70.1777 44.0813 69.4938 43.5132C68.6611 42.8254 68.5422 41.7787 69.2261 40.9414C69.6424 40.433 70.1777 40.2237 70.6535 40.2835L71.0103 38.2201C69.7911 38.0407 68.4827 38.5191 67.5609 39.6256C66.1336 41.3301 66.3715 43.6926 68.0664 45.128C69.7614 46.5634 72.0808 46.4139 73.5974 44.5897Z" fill="#F9F3F0"/>
        <path fill-rule="evenodd" clip-rule="evenodd" d="M73.5677 38.5191C71.7835 37.2332 71.3969 34.811 72.6756 33.0167C73.9542 31.2225 76.3629 30.7739 78.147 32.0598C79.9312 33.3457 80.3178 35.7679 79.0391 37.5622C77.7605 39.3564 75.3816 39.805 73.5677 38.5191ZM76.9279 33.7942C76.0952 33.1962 74.995 33.3756 74.4003 34.2428C73.7758 35.11 73.984 36.1866 74.8166 36.7847C75.6492 37.3828 76.7494 37.2033 77.3442 36.3361C77.9686 35.4689 77.7605 34.3923 76.9279 33.7942Z" fill="#F9F3F0"/>
    </g>
    <defs>
        <clipPath id="clip0_726_3560">
            <rect width="80" height="62.5" fill="white" transform="translate(0 0.75)"/>
        </clipPath>
    </defs>
</svg>
