<svg width="36" height="60" viewBox="0 0 36 60" fill="none" xmlns="http://www.w3.org/2000/svg">
    <path fill-rule="evenodd" clip-rule="evenodd" d="M4.77747 1.85867C4.69394 1.72249 4.59227 1.60471 4.4688 1.50534C4.34534 1.40228 4.20372 1.32499 4.04757 1.2661C3.89142 1.21089 3.72802 1.18145 3.55734 1.18145C3.24505 1.18145 2.97997 1.24402 2.75846 1.36548C2.54058 1.48693 2.36264 1.65256 2.22829 1.85867C2.09393 2.06478 1.99225 2.30033 1.93052 2.56533C1.86878 2.83033 1.8361 3.10269 1.8361 3.38241C1.8361 3.66213 1.86515 3.91241 1.93052 4.16636C1.99225 4.42032 2.0903 4.64849 2.22829 4.85462C2.36264 5.05707 2.54058 5.22267 2.75846 5.34413C2.97634 5.4656 3.24142 5.52818 3.55734 5.52818C3.98221 5.52818 4.31629 5.39565 4.55232 5.13436C4.79199 4.86933 4.93722 4.52338 4.99171 4.09275H6.33891C6.3026 4.49391 6.21185 4.85462 6.06296 5.17849C5.91407 5.5024 5.72163 5.77845 5.47829 6.00293C5.235 6.23116 4.95176 6.40414 4.62858 6.5256C4.30539 6.64338 3.9459 6.70591 3.55734 6.70591C3.07438 6.70591 2.63862 6.62129 2.25007 6.44827C1.86152 6.27898 1.53834 6.04342 1.26962 5.74165C1.00453 5.44351 0.801181 5.09018 0.65956 4.68533C0.517939 4.28414 0.445312 3.84984 0.445312 3.38241C0.445312 2.91498 0.514307 2.4586 0.65956 2.05005C0.801181 1.64152 1.00453 1.28083 1.26962 0.979023C1.5347 0.673538 1.86152 0.434303 2.25007 0.261318C2.63499 0.0883329 3.07075 0 3.55734 0C3.90595 0 4.2364 0.0515276 4.54506 0.150902C4.85372 0.253957 5.13331 0.401178 5.37665 0.596245C5.61994 0.791316 5.82327 1.03055 5.98305 1.31763C6.14283 1.60471 6.24451 1.93596 6.28447 2.30401H4.93723C4.91545 2.14207 4.86099 1.99485 4.77747 1.85867ZM18.0282 42.8635C26.434 42.8635 33.246 35.9597 33.247 27.4439C33.246 18.928 26.4304 12.0243 18.0282 12.0243C9.62535 12.0243 2.813 18.9216 2.813 27.442C2.813 35.9624 9.6217 42.8635 18.0282 42.8635ZM0.503488 27.4347C0.503488 17.6224 8.35077 9.66874 18.0282 9.66874C27.7093 9.66874 35.5565 17.626 35.5565 27.4347C35.5565 37.2433 27.7056 45.1969 18.0282 45.1969C8.35077 45.1969 0.503488 37.247 0.503488 27.4347ZM17.952 17.2985H10.6967V37.5783H20.3596C24.3359 37.5783 26.4384 34.7369 26.4384 31.7556C26.4384 29.2566 25.0948 27.3832 22.6292 26.8716V26.8127C24.4812 26.0471 25.5996 24.4277 25.5996 22.2709C25.5996 20.2798 24.5647 18.8333 23.2465 18.0383C22.0445 17.2985 19.7168 17.2985 17.952 17.2985ZM18.6856 26.0177H13.3584V19.5694H18.6856C20.9842 19.5694 22.9451 19.9669 22.9451 22.7788C22.9451 24.9098 21.7104 26.0177 18.6856 26.0177ZM13.3621 35.3037H20.0292C22.3241 35.3037 23.7839 33.883 23.7839 31.671C23.7839 29.0284 21.6814 28.2922 19.4409 28.2922H13.3621V35.3037ZM35.5203 48.9436H0.5399V51.2734H35.5203V48.9436ZM34.5507 46.3747C34.5107 46.3782 34.4708 46.3782 34.4272 46.3782L34.4309 46.3822H34.2311V45.988H34.4817C34.5003 45.988 34.5171 45.9891 34.5333 45.9901L34.5334 45.9901L34.548 45.991C34.5584 45.9916 34.5689 45.992 34.5797 45.992C34.6161 45.9991 34.6414 46.0067 34.6669 46.0213C34.6923 46.0324 34.7141 46.0507 34.7286 46.0764C34.7431 46.0987 34.7504 46.1356 34.7504 46.176C34.7504 46.2236 34.7431 46.2604 34.725 46.2902C34.7068 46.316 34.685 46.3378 34.6524 46.3524C34.6233 46.3636 34.587 46.3747 34.5507 46.3747ZM34.8339 45.9182C34.7613 45.8596 34.656 45.8298 34.5107 45.8298V45.8338H34.035V47.0702H34.2275V46.5364H34.4272L34.7613 47.0702H34.9646L34.6161 46.5258C34.7105 46.5147 34.7867 46.4849 34.8485 46.4338C34.9065 46.3782 34.9392 46.3009 34.9392 46.1871C34.9392 46.0653 34.9029 45.9773 34.8339 45.9182ZM33.8317 47.0924C33.7518 47.0116 33.6901 46.912 33.6501 46.8018C33.6065 46.6911 33.5848 46.5769 33.5848 46.4444C33.5848 46.312 33.6065 46.1982 33.6501 46.0876C33.6937 45.9773 33.7518 45.8813 33.8317 45.8004C33.9043 45.7231 33.9987 45.6604 34.104 45.6129C34.2057 45.5684 34.3219 45.5427 34.4417 45.5427C34.5616 45.5427 34.6778 45.5684 34.7794 45.6129C34.8811 45.6569 34.9719 45.7196 35.0518 45.8004C35.1244 45.8813 35.1861 45.9773 35.2298 46.0876C35.277 46.1982 35.2987 46.316 35.2987 46.4444C35.2987 46.5733 35.2733 46.6911 35.2298 46.8018C35.1898 46.9156 35.1281 47.0116 35.0518 47.0924C34.9755 47.1733 34.8848 47.236 34.7794 47.2836C34.6778 47.328 34.5616 47.3502 34.4417 47.3502C34.3219 47.3502 34.2057 47.328 34.104 47.2836C33.9987 47.236 33.9079 47.1733 33.8317 47.0924ZM33.7009 45.6938C33.6065 45.7893 33.5303 45.896 33.4758 46.0249C33.4177 46.1538 33.3959 46.2938 33.3959 46.4444C33.3959 46.5956 33.4177 46.7356 33.4758 46.864C33.5303 46.9969 33.6065 47.1071 33.7009 47.2027C33.7953 47.3022 33.9079 47.372 34.035 47.4271C34.1621 47.4787 34.2929 47.5044 34.4381 47.5044C34.5833 47.5044 34.7177 47.4787 34.8485 47.4271C34.9719 47.372 35.0809 47.3022 35.1753 47.2027C35.2697 47.1071 35.3459 46.9969 35.4004 46.864C35.4585 46.7356 35.4839 46.5956 35.4839 46.4444C35.4839 46.2938 35.4585 46.1538 35.4004 46.0249C35.3496 45.9 35.2697 45.7893 35.1753 45.6938C35.0845 45.5982 34.9719 45.528 34.8485 45.4729C34.7177 45.4178 34.5761 45.392 34.4381 45.392C34.3001 45.392 34.1621 45.4178 34.035 45.4729C33.9079 45.528 33.7953 45.5982 33.7009 45.6938ZM8.96435 5.72689C8.61208 5.72689 8.33973 5.6312 8.15093 5.4472L8.14728 5.45822C7.95844 5.27418 7.85679 4.9724 7.83862 4.56018H11.1431C11.1685 4.19949 11.1395 3.85352 11.056 3.52595C10.9724 3.19838 10.8381 2.90394 10.6529 2.6463C10.4677 2.38866 10.2316 2.18624 9.94115 2.03165C9.65066 1.88075 9.30928 1.80346 8.92075 1.80346C8.57213 1.80346 8.25622 1.86603 7.96937 1.99117C7.68248 2.11631 7.43555 2.28929 7.22857 2.50644C7.02159 2.72359 6.86182 2.98491 6.74924 3.28303C6.63666 3.58116 6.58217 3.894 6.58217 4.25101C6.58217 4.60805 6.63666 4.93929 6.74559 5.23738C6.85453 5.5392 7.0107 5.79685 7.21039 6.01031C7.41377 6.22378 7.65706 6.38942 7.94755 6.50716C8.23444 6.62494 8.56124 6.68382 8.92075 6.68382C9.44004 6.68382 9.88306 6.5624 10.2498 6.32316C10.6166 6.08391 10.8889 5.68276 11.0668 5.12698H9.95933C9.91573 5.27053 9.80315 5.40671 9.62159 5.53551C9.43639 5.66436 9.21853 5.72689 8.96435 5.72689ZM8.88808 2.75304C9.19311 2.75304 9.42186 2.83769 9.57439 3.00331C9.72688 3.16894 9.83222 3.41553 9.89031 3.73942H7.84226C7.8495 3.64741 7.86768 3.54803 7.90035 3.43393C7.93306 3.31984 7.9875 3.2131 8.06742 3.11005C8.14728 3.01067 8.25262 2.92602 8.38697 2.85609C8.52133 2.78616 8.68835 2.75304 8.88808 2.75304ZM12.9081 1.91756V2.7788H12.9263C12.9844 2.63526 13.0643 2.50276 13.166 2.37762C13.2676 2.25617 13.3802 2.14943 13.5109 2.06478C13.6417 1.98013 13.7797 1.9102 13.9285 1.86235C14.0774 1.8145 14.2299 1.79242 14.3897 1.79242C14.4732 1.79242 14.564 1.80714 14.6657 1.83658V3.02172C14.6076 3.01068 14.5349 2.99963 14.4514 2.99227L14.4405 2.99131C14.3609 2.98428 14.2847 2.97755 14.2117 2.97755C13.983 2.97755 13.7869 3.01804 13.6271 3.09533C13.4673 3.17262 13.3402 3.27935 13.2422 3.41554C13.1441 3.55171 13.0752 3.7063 13.0352 3.88664C12.9953 4.06699 12.9735 4.26206 12.9735 4.47182V6.56605H11.7171V1.91756H12.9081ZM18.0319 2.77145V1.91756H17.1023V0.526324H15.8458V1.91756H15.0833V2.77145H15.8458V5.51343C15.8458 5.74899 15.8858 5.93672 15.962 6.08023C16.0419 6.22379 16.1436 6.33419 16.278 6.41148C16.4123 6.49246 16.5648 6.54401 16.7392 6.56974C16.9098 6.59552 17.095 6.61023 17.2911 6.61023C17.4146 6.61023 17.5416 6.60654 17.6724 6.59921C17.8031 6.59183 17.9229 6.58081 18.0283 6.56241V5.57601C17.9701 5.58703 17.9084 5.59441 17.8431 5.60179C17.7777 5.60912 17.7123 5.60912 17.6397 5.60912C17.4291 5.60912 17.2838 5.57232 17.2148 5.50241C17.1459 5.43245 17.1096 5.28894 17.1096 5.07179V2.77145H18.0319ZM18.7617 1.19986V0.14723H20.0182V1.19986H18.7617ZM20.0182 1.91756V6.55872H18.7617V1.91756H20.0182ZM20.5191 1.91756V2.77145H21.2708V6.56605H22.5308V2.77513H23.3988V1.92124H22.5308V1.64152C22.5308 1.45014 22.5672 1.31396 22.6398 1.23299C22.7124 1.15201 22.8359 1.11153 23.0066 1.11153C23.1664 1.11153 23.3188 1.11889 23.4677 1.13729V0.184035C23.4002 0.181675 23.3312 0.176289 23.2607 0.170786C23.2212 0.167708 23.1813 0.164593 23.1409 0.161952C23.0284 0.15091 22.9158 0.14723 22.8032 0.14723C22.2912 0.14723 21.9063 0.276048 21.6521 0.541049C21.3979 0.806044 21.2708 1.14465 21.2708 1.55687V1.91756H20.5191ZM24.2524 1.19986V0.14723H25.5088V1.19986H24.2524ZM25.5088 1.91756V6.55872H24.2524V1.91756H25.5088ZM28.3083 5.72689C27.9561 5.72689 27.6837 5.6312 27.4949 5.4472L27.4985 5.45822C27.3097 5.27418 27.2081 4.9724 27.1899 4.56018H30.4944C30.5161 4.19949 30.4871 3.85352 30.4036 3.52595C30.3201 3.19838 30.1857 2.90394 30.0005 2.6463C29.8153 2.38866 29.5793 2.18624 29.2888 2.03165C28.9983 1.88075 28.6569 1.80346 28.2684 1.80346C27.9198 1.80346 27.6038 1.86603 27.317 1.99117C27.0301 2.11631 26.7832 2.28929 26.5762 2.50644C26.3692 2.72359 26.2094 2.98491 26.0969 3.28303C25.9879 3.58116 25.9298 3.894 25.9298 4.25101C25.9298 4.60805 25.9843 4.93929 26.0932 5.23738C26.2021 5.5392 26.3583 5.79685 26.558 6.01031C26.7614 6.22378 27.0047 6.38942 27.2952 6.50716C27.5821 6.62494 27.9089 6.68382 28.2684 6.68382C28.7877 6.68382 29.2307 6.5624 29.5974 6.32316C29.9605 6.08391 30.2329 5.68276 30.4109 5.12698H29.3033C29.2597 5.27053 29.1472 5.40671 28.9656 5.53551C28.7804 5.66436 28.5625 5.72689 28.3083 5.72689ZM28.2321 2.75304C28.5371 2.75304 28.7695 2.83769 28.9184 3.00331H28.9148C29.0673 3.16894 29.1726 3.41553 29.2307 3.73942H27.1862C27.1935 3.64741 27.2117 3.54803 27.2444 3.43393C27.277 3.31984 27.3315 3.2131 27.4114 3.11005C27.4913 3.01067 27.5966 2.92602 27.7309 2.85609C27.8653 2.78616 28.0323 2.75304 28.2321 2.75304ZM34.307 5.96614C34.1582 6.21641 33.9657 6.40046 33.726 6.51086C33.4863 6.6213 33.2176 6.6765 32.9162 6.6765C32.5749 6.6765 32.2735 6.61023 32.0121 6.47406C31.7506 6.33788 31.5363 6.15752 31.3693 5.92566C31.2022 5.69379 31.0752 5.42881 30.988 5.13068C30.9009 4.83254 30.8609 4.5197 30.8609 4.19581C30.8609 3.87193 30.9045 3.58485 30.988 3.29409C31.0715 3.00332 31.2022 2.74937 31.3693 2.52485C31.5363 2.30402 31.7506 2.12368 32.0011 1.99118C32.2554 1.855 32.5495 1.78875 32.8872 1.78875C33.1595 1.78875 33.4174 1.84764 33.6606 1.96541C33.9076 2.08319 34.1 2.25249 34.2417 2.48069H34.2598V0.14723H35.5162V6.55872H34.3215V5.96614H34.307ZM34.2526 3.67318C34.2162 3.49651 34.1582 3.34193 34.071 3.20575C33.9838 3.06957 33.8749 2.96284 33.7369 2.87818C33.6026 2.79353 33.4282 2.75305 33.2249 2.75305C33.0215 2.75305 32.8436 2.79353 32.702 2.87818C32.5604 2.96284 32.4478 3.07325 32.3606 3.20943C32.2771 3.34561 32.2154 3.50388 32.1754 3.68054C32.1355 3.85721 32.1174 4.04123 32.1174 4.23262C32.1174 4.41297 32.1391 4.5933 32.1791 4.76997C32.219 4.95032 32.288 5.10859 32.3788 5.25214C32.4696 5.39197 32.5858 5.5061 32.7238 5.59441C32.8618 5.68277 33.0288 5.72326 33.2249 5.72326C33.4319 5.72326 33.6026 5.68277 33.7442 5.5981C33.8822 5.51343 33.9947 5.40303 34.0782 5.25948C34.1618 5.11961 34.2199 4.9577 34.2562 4.78103C34.2925 4.60068 34.3106 4.41665 34.3106 4.22526C34.3106 4.03387 34.2925 3.84985 34.2562 3.67318H34.2526ZM2.63499 55.0609C3.12159 55.0609 3.54645 55.4031 3.60818 55.852H4.55595C4.43612 54.8066 3.61545 54.2253 2.63499 54.2253C1.2551 54.2253 0.445312 55.3111 0.445312 56.6102C0.445312 57.9093 1.2551 58.9546 2.63499 58.9546C3.72802 58.9546 4.49422 58.2333 4.5959 57.1071H3.6445C3.57187 57.7035 3.23416 58.1191 2.63499 58.1191C1.75622 58.1191 1.42577 57.4013 1.42577 56.6102C1.42577 55.8191 1.75622 55.0609 2.63499 55.0609ZM6.64015 55.4916C7.65691 55.4916 8.31056 56.1725 8.31056 57.2174C8.31056 58.2627 7.65691 58.9365 6.64015 58.9365C5.62335 58.9365 4.97335 58.2516 4.97335 57.2174C4.97335 56.1832 5.627 55.4916 6.64015 55.4916ZM6.64015 58.2592C7.24655 58.2592 7.42451 57.7329 7.42451 57.2174C7.42451 56.7023 7.24295 56.1685 6.64015 56.1685C6.03735 56.1685 5.8594 56.6947 5.8594 57.2174C5.8594 57.74 6.04095 58.2592 6.64015 58.2592ZM9.70145 55.5726H8.85896V58.8406H9.745V57.3686C9.745 56.7943 9.97016 56.3197 10.6202 56.3197C10.7254 56.3197 10.8562 56.3308 10.9397 56.349V55.5135C10.8852 55.4952 10.809 55.4841 10.7472 55.4841C10.3151 55.4841 9.87571 55.7677 9.71594 56.1797H9.70145V55.5726ZM12.1237 55.5796V55.9956H12.1346C12.3452 55.6498 12.6938 55.4916 13.0933 55.4916C14.1064 55.4916 14.5603 56.3196 14.5603 57.2472C14.5603 58.1192 14.0883 58.9365 13.1441 58.9365C12.7592 58.9365 12.3888 58.7672 12.1782 58.4432H12.1637V60H11.2776V55.5796H12.1237ZM13.6779 57.2249C13.6779 56.7058 13.471 56.1685 12.9045 56.1685C12.338 56.1685 12.1382 56.6947 12.1382 57.2249C12.1382 57.7547 12.338 58.2627 12.9117 58.2627C13.4855 58.2627 13.6779 57.7587 13.6779 57.2249ZM18.1806 57.2174C18.1806 56.1725 17.5234 55.4916 16.5066 55.4916C15.4971 55.4916 14.8435 56.1832 14.8435 57.2174C14.8435 58.2516 15.4898 58.9365 16.5066 58.9365C17.5234 58.9365 18.1806 58.2627 18.1806 57.2174ZM17.2946 57.2174C17.2946 57.7329 17.113 58.2592 16.5066 58.2592C15.9074 58.2592 15.7259 57.74 15.7259 57.2174C15.7259 56.6947 15.9002 56.1685 16.5066 56.1685C17.113 56.1685 17.2946 56.7023 17.2946 57.2174ZM19.5681 55.5726V56.1797H19.5826C19.7424 55.7677 20.1817 55.4841 20.6103 55.4841C20.672 55.4841 20.7482 55.4952 20.8027 55.5135V56.349C20.7228 56.3308 20.5921 56.3197 20.4832 56.3197C19.8332 56.3197 19.608 56.7943 19.608 57.3686V58.8406H18.722V55.5726H19.5681ZM22.582 55.4916C21.8557 55.4916 21.115 55.7418 21.0641 56.5845H21.9502C21.9829 56.2312 22.2007 56.0912 22.5385 56.0912C22.8471 56.0912 23.1122 56.1649 23.1122 56.5329C23.1122 56.8366 22.7684 56.8773 22.3421 56.9277L22.3418 56.9277C22.2517 56.9384 22.1578 56.9495 22.0627 56.9636C21.5144 57.0409 20.9661 57.2174 20.9661 57.9574C20.9661 58.6272 21.4527 58.9365 22.0627 58.9365C22.4585 58.9365 22.8689 58.8298 23.1485 58.5316C23.1521 58.6383 23.1812 58.7449 23.2102 58.848H24.1108C24.0273 58.7121 23.9982 58.4174 23.9982 58.1192V56.4187C23.9982 55.6352 23.2248 55.4916 22.582 55.4916ZM22.5849 57.4053C22.7954 57.3753 22.9977 57.3465 23.1122 57.2472L23.1158 57.2507V57.5858C23.1158 57.7805 23.0868 58.3365 22.3968 58.3365C22.1063 58.3365 21.8521 58.2516 21.8521 57.9205C21.8521 57.5894 22.099 57.4938 22.375 57.4383C22.4439 57.4254 22.5148 57.4153 22.5848 57.4053L22.5849 57.4053ZM25.7884 55.5795H26.4384V56.1795H25.7884V57.799C25.7884 58.1044 25.8647 58.1782 26.1625 58.1782C26.2569 58.1782 26.344 58.1706 26.4384 58.1524V58.8555C26.2895 58.8813 26.0934 58.8884 25.9191 58.8884C25.3781 58.8884 24.9024 58.7595 24.9024 58.1119V56.183H24.365V55.5835H24.9024V54.6044H25.7884V55.5795ZM27.103 55.0757H27.989V54.3357H27.103V55.0757ZM27.989 55.5837H27.103V58.8517H27.989V55.5837ZM30.2511 55.4916C31.2678 55.4916 31.9251 56.1725 31.9251 57.2174C31.9251 58.2627 31.2678 58.9365 30.2511 58.9365C29.2343 58.9365 28.5879 58.2516 28.5879 57.2174C28.5879 56.1832 29.2415 55.4916 30.2511 55.4916ZM30.2511 58.2592C30.8575 58.2592 31.039 57.7329 31.039 57.2174C31.039 56.7023 30.8575 56.1685 30.2511 56.1685C29.6446 56.1685 29.4703 56.6947 29.4703 57.2174C29.4703 57.74 29.6519 58.2592 30.2511 58.2592ZM33.3377 55.5796H32.4953L32.4989 55.5836V58.8516H33.3849V57.1365C33.3849 56.4703 33.5883 56.1983 34.0713 56.1983C34.4816 56.1983 34.6377 56.4632 34.6377 57.0005V58.848H35.5238V56.8383C35.5238 56.0289 35.2841 55.4916 34.3436 55.4916C33.9659 55.4916 33.581 55.668 33.3559 56.036H33.3377V55.5796Z" fill="#F9F3F0"/>
</svg>